<svg xmlns="http://www.w3.org/2000/svg" width="22" height="22" fill="none"><path d="M1.126 19c0 1.467 1.2 2.667 2.666 2.667 1.467 0 2.667-1.2 2.667-2.667 0-1.467-1.2-2.667-2.667-2.667A2.674 2.674 0 001.126 19zM3.792 8.333c1.467 0 2.667 1.2 2.667 2.667 0 1.467-1.2 2.667-2.667 2.667A2.675 2.675 0 011.126 11c0-1.467 1.2-2.667 2.666-2.667zm0-8C5.26.333 6.46 1.533 6.46 3c0 1.467-1.2 2.667-2.667 2.667A2.675 2.675 0 011.126 3c0-1.467 1.2-2.667 2.666-2.667zM8.355 18.98c0 1.467 1.2 2.667 2.667 2.667 1.467 0 2.667-1.2 2.667-2.667 0-1.467-1.2-2.667-2.667-2.667a2.674 2.674 0 00-2.667 2.667zm2.667-10.667c1.467 0 2.667 1.2 2.667 2.667 0 1.467-1.2 2.667-2.667 2.667a2.675 2.675 0 01-2.667-2.667c0-1.467 1.2-2.667 2.667-2.667zm0-8c1.467 0 2.667 1.2 2.667 2.667 0 1.467-1.2 2.667-2.667 2.667A2.675 2.675 0 018.355 2.98c0-1.467 1.2-2.667 2.667-2.667zM15.605 18.98c0 1.467 1.2 2.667 2.666 2.667 1.467 0 2.667-1.2 2.667-2.667 0-1.467-1.2-2.667-2.667-2.667a2.674 2.674 0 00-2.666 2.667zM18.27 8.313c1.467 0 2.667 1.2 2.667 2.667 0 1.467-1.2 2.667-2.667 2.667a2.675 2.675 0 01-2.666-2.667c0-1.467 1.2-2.667 2.666-2.667zm0-8c1.467 0 2.667 1.2 2.667 2.667 0 1.467-1.2 2.667-2.667 2.667a2.675 2.675 0 01-2.666-2.667c0-1.467 1.2-2.667 2.666-2.667z" fill="#2a4143"/></svg>
