<svg width="24" height="24" viewBox="0 0 24 24" fill="none" xmlns="http://www.w3.org/2000/svg">
<path d="M9.69229 3.85697L9.97806 4.86733L10.7423 4.65118V3.85697H9.69229ZM14.3077 3.85697H13.2577V4.65118L14.0219 4.86733L14.3077 3.85697ZM16.1257 4.61069L15.613 5.52701L16.3063 5.91497L16.8682 5.35316L16.1257 4.61069ZM16.3514 4.385L15.6089 3.64254L15.6089 3.64254L16.3514 4.385ZM18.5271 4.385L19.2696 3.64254V3.64254L18.5271 4.385ZM19.615 5.47285L18.8725 6.21531L19.615 5.47285ZM19.615 7.64856L18.8725 6.9061V6.9061L19.615 7.64856ZM19.3893 7.87426L18.6468 7.13179L18.085 7.69361L18.4729 8.38697L19.3893 7.87426ZM20.143 9.69229L19.1326 9.97806L19.3488 10.7423H20.143V9.69229ZM20.143 14.3077V13.2577H19.3488L19.1326 14.0219L20.143 14.3077ZM19.3893 16.1257L18.4729 15.613L18.085 16.3063L18.6468 16.8682L19.3893 16.1257ZM19.615 16.3514L18.8725 17.0939L19.615 16.3514ZM19.615 18.5271L20.3574 19.2696L19.615 18.5271ZM18.5271 19.615L17.7846 18.8725L18.5271 19.615ZM16.3514 19.615L17.0939 18.8725L16.3514 19.615ZM16.1257 19.3893L16.8682 18.6468L16.3063 18.085L15.613 18.4729L16.1257 19.3893ZM14.3077 20.143L14.0219 19.1326L13.2577 19.3488V20.143H14.3077ZM9.69229 20.143H10.7423V19.3488L9.97806 19.1326L9.69229 20.143ZM7.87426 19.3893L8.38697 18.4729L7.69361 18.085L7.13179 18.6468L7.87426 19.3893ZM7.64856 19.615L6.9061 18.8725H6.9061L7.64856 19.615ZM5.47285 19.615L6.21531 18.8725L5.47285 19.615ZM4.385 18.5271L3.64254 19.2696H3.64254L4.385 18.5271ZM4.385 16.3514L3.64254 15.6089L3.64254 15.6089L4.385 16.3514ZM4.61069 16.1257L5.35316 16.8682L5.91497 16.3063L5.52701 15.613L4.61069 16.1257ZM3.85697 14.3077L4.86733 14.0219L4.65118 13.2577H3.85697V14.3077ZM3.53846 9.69229V10.7423V9.69229ZM3.85697 9.69229V10.7423H4.65118L4.86733 9.97806L3.85697 9.69229ZM4.61069 7.87426L5.52701 8.38697L5.91497 7.6936L5.35316 7.13179L4.61069 7.87426ZM4.385 7.64856L3.64254 8.39102L4.385 7.64856ZM4.385 5.47285L3.64254 4.73039L4.385 5.47285ZM5.47285 4.385L6.21531 5.12746L5.47285 4.385ZM7.64856 4.385L6.9061 5.12746L7.64856 4.385ZM7.87426 4.61069L7.13179 5.35316L7.6936 5.91497L8.38697 5.52701L7.87426 4.61069ZM10.7423 3.85697V3.53846H8.64229V3.85697H10.7423ZM10.7423 3.53846C10.7423 3.26869 10.961 3.05 11.2307 3.05V0.95C9.80118 0.95 8.64229 2.10889 8.64229 3.53846H10.7423ZM11.2307 3.05H12.7692V0.95H11.2307V3.05ZM12.7692 3.05C13.039 3.05 13.2577 3.26869 13.2577 3.53846H15.3577C15.3577 2.10889 14.1988 0.95 12.7692 0.95V3.05ZM13.2577 3.53846V3.85697H15.3577V3.53846H13.2577ZM14.0219 4.86733C14.5818 5.0257 15.115 5.24836 15.613 5.52701L16.6384 3.69438C15.9989 3.33658 15.3136 3.0503 14.5934 2.8466L14.0219 4.86733ZM16.8682 5.35316L17.0939 5.12746L15.6089 3.64254L15.3832 3.86823L16.8682 5.35316ZM17.0939 5.12746C17.2846 4.93671 17.5939 4.93671 17.7846 5.12746L19.2696 3.64254C18.2587 2.63168 16.6198 2.63168 15.6089 3.64254L17.0939 5.12746ZM17.7846 5.12746L18.8725 6.21531L20.3574 4.73039L19.2696 3.64254L17.7846 5.12746ZM18.8725 6.21531C19.0632 6.40607 19.0632 6.71534 18.8725 6.9061L20.3574 8.39102C21.3683 7.38017 21.3683 5.74125 20.3574 4.73039L18.8725 6.21531ZM18.8725 6.9061L18.6468 7.13179L20.1317 8.61672L20.3574 8.39102L18.8725 6.9061ZM18.4729 8.38697C18.7516 8.88497 18.9742 9.41813 19.1326 9.97806L21.1533 9.40652C20.9496 8.68631 20.6634 8.001 20.3056 7.36155L18.4729 8.38697ZM20.143 10.7423H20.4615V8.64229H20.143V10.7423ZM20.4615 10.7423C20.7313 10.7423 20.95 10.961 20.95 11.2307H23.05C23.05 9.80118 21.8911 8.64229 20.4615 8.64229V10.7423ZM20.95 11.2307V12.7692H23.05V11.2307H20.95ZM20.95 12.7692C20.95 13.039 20.7313 13.2577 20.4615 13.2577V15.3577C21.8911 15.3577 23.05 14.1988 23.05 12.7692H20.95ZM20.4615 13.2577H20.143V15.3577H20.4615V13.2577ZM19.1326 14.0219C18.9742 14.5818 18.7516 15.115 18.4729 15.613L20.3056 16.6384C20.6634 15.9989 20.9496 15.3136 21.1533 14.5934L19.1326 14.0219ZM18.6468 16.8682L18.8725 17.0939L20.3574 15.6089L20.1317 15.3832L18.6468 16.8682ZM18.8725 17.0939C19.0632 17.2846 19.0632 17.5939 18.8725 17.7846L20.3574 19.2696C21.3683 18.2587 21.3683 16.6198 20.3574 15.6089L18.8725 17.0939ZM18.8725 17.7846L17.7846 18.8725L19.2696 20.3574L20.3574 19.2696L18.8725 17.7846ZM17.7846 18.8725C17.5939 19.0632 17.2846 19.0632 17.0939 18.8725L15.6089 20.3574C16.6198 21.3683 18.2587 21.3683 19.2696 20.3574L17.7846 18.8725ZM17.0939 18.8725L16.8682 18.6468L15.3832 20.1317L15.6089 20.3574L17.0939 18.8725ZM15.613 18.4729C15.115 18.7516 14.5818 18.9742 14.0219 19.1326L14.5934 21.1533C15.3136 20.9496 15.9989 20.6634 16.6384 20.3056L15.613 18.4729ZM13.2577 20.143V20.4615H15.3577V20.143H13.2577ZM13.2577 20.4615C13.2577 20.7313 13.039 20.95 12.7692 20.95V23.05C14.1988 23.05 15.3577 21.8911 15.3577 20.4615H13.2577ZM12.7692 20.95H11.2307V23.05H12.7692V20.95ZM11.2307 20.95C10.961 20.95 10.7423 20.7313 10.7423 20.4615H8.64229C8.64229 21.8911 9.80118 23.05 11.2307 23.05V20.95ZM10.7423 20.4615V20.143H8.64229V20.4615H10.7423ZM9.97806 19.1326C9.41813 18.9742 8.88497 18.7516 8.38697 18.4729L7.36155 20.3056C8.001 20.6634 8.68631 20.9496 9.40652 21.1533L9.97806 19.1326ZM7.13179 18.6468L6.9061 18.8725L8.39102 20.3574L8.61672 20.1317L7.13179 18.6468ZM6.9061 18.8725C6.71534 19.0632 6.40607 19.0632 6.21531 18.8725L4.73039 20.3574C5.74125 21.3683 7.38017 21.3683 8.39102 20.3574L6.9061 18.8725ZM6.21531 18.8725L5.12746 17.7846L3.64254 19.2696L4.73039 20.3574L6.21531 18.8725ZM5.12746 17.7846C4.93671 17.5939 4.93671 17.2846 5.12746 17.0939L3.64254 15.6089C2.63168 16.6198 2.63168 18.2587 3.64254 19.2696L5.12746 17.7846ZM5.12746 17.0939L5.35316 16.8682L3.86823 15.3832L3.64254 15.6089L5.12746 17.0939ZM5.52701 15.613C5.24836 15.115 5.0257 14.5818 4.86733 14.0219L2.8466 14.5934C3.0503 15.3136 3.33658 15.9989 3.69438 16.6384L5.52701 15.613ZM3.85697 13.2577H3.53846V15.3577H3.85697V13.2577ZM3.53846 13.2577C3.26869 13.2577 3.05 13.039 3.05 12.7692H0.95C0.95 14.1988 2.10889 15.3577 3.53846 15.3577V13.2577ZM3.05 12.7692V11.2307H0.95V12.7692H3.05ZM3.05 11.2307C3.05 10.961 3.26869 10.7423 3.53846 10.7423V8.64229C2.10889 8.64229 0.95 9.80118 0.95 11.2307H3.05ZM3.53846 10.7423H3.85697V8.64229H3.53846V10.7423ZM4.86733 9.97806C5.0257 9.41813 5.24836 8.88497 5.52701 8.38697L3.69438 7.36155C3.33658 8.001 3.0503 8.68632 2.8466 9.40652L4.86733 9.97806ZM5.35316 7.13179L5.12746 6.9061L3.64254 8.39102L3.86823 8.61672L5.35316 7.13179ZM5.12746 6.9061C4.93671 6.71534 4.93671 6.40607 5.12746 6.21531L3.64254 4.73039C2.63168 5.74125 2.63168 7.38017 3.64254 8.39102L5.12746 6.9061ZM5.12746 6.21531L6.21531 5.12746L4.73039 3.64254L3.64254 4.73039L5.12746 6.21531ZM6.21531 5.12746C6.40607 4.93671 6.71534 4.93671 6.9061 5.12746L8.39102 3.64254C7.38017 2.63168 5.74125 2.63168 4.73039 3.64254L6.21531 5.12746ZM6.9061 5.12746L7.13179 5.35316L8.61672 3.86823L8.39102 3.64254L6.9061 5.12746ZM8.38697 5.52701C8.88497 5.24836 9.41813 5.0257 9.97806 4.86733L9.40652 2.8466C8.68632 3.0503 8.001 3.33658 7.36155 3.69438L8.38697 5.52701ZM12 16.1269C14.2793 16.1269 16.127 14.2792 16.127 12H14.027C14.027 13.1194 13.1195 14.0269 12 14.0269V16.1269ZM16.127 12C16.127 9.72073 14.2793 7.87304 12 7.87304V9.97304C13.1195 9.97304 14.027 10.8805 14.027 12H16.127ZM12 7.87304C9.7208 7.87304 7.87312 9.72073 7.87312 12H9.97312C9.97312 10.8805 10.8806 9.97304 12 9.97304V7.87304ZM7.87312 12C7.87312 14.2792 9.7208 16.1269 12 16.1269V14.0269C10.8806 14.0269 9.97312 13.1194 9.97312 12H7.87312Z" fill="#2A4143"/>
</svg>
