<svg xmlns="http://www.w3.org/2000/svg" viewBox="0 0 5.6325774 5.5780387" fill="none"><path stroke-width="0.35" d="m 0.18190104,0.22499189 0.58288188,0.2969113 c 0.0823899,0.0473195 0.072547,0.0456312 0.0894492,0.11597014 L 1.4277895,3.1755644 4.8065846,3.176157 c 0.1112097,0.00233 0.091834,-0.00318 0.1278283,-0.1128687 L 5.2907495,1.388806 C 5.3050605,1.316667 5.3075815,1.313625 5.2534735,1.305588 l -4.311033,-0.2713804 0.6078524,2.826738 c 0.030317,0.111617 0.017066,0.1054217 0.1528024,0.1054206 0.5346948,-4.4e-6 2.566067,0.00827 3.1007458,0.012402"/><path d="m 1.830444,5.2757914 c -0.1456457,-0.0095 -0.2558941,-0.135216 -0.2463636,-0.280863 0.00952,-0.145645 0.1352178,-0.255894 0.2808637,-0.246363 0.1456454,0.0095 0.2558937,0.135216 0.246363,0.280863 -0.00952,0.145646 -0.1352164,0.255894 -0.2808631,0.246363 z" fill="#000000" stroke-width="0.7"/><path d="m 4.2154384,5.2799814 c -0.1456457,-0.0095 -0.2558941,-0.135216 -0.2463636,-0.280863 0.00952,-0.145646 0.135218,-0.255894 0.2808637,-0.246363 0.1456454,0.0095 0.2558939,0.135216 0.2463631,0.280863 -0.00952,0.145645 -0.1352164,0.255894 -0.2808632,0.246363 z" fill="#000000" stroke-width="0.7"/></svg>
