<svg width="304" height="282" viewBox="0 0 304 282" fill="none" xmlns="http://www.w3.org/2000/svg">
<path opacity="0.2" d="M281.108 127.511C281.108 144.711 267.053 143.308 244.391 153.422C226.921 161.22 217.255 164.585 192.903 164.585C166.012 164.585 152.175 153.869 134.04 144.559C114.451 134.502 85.2861 154.22 85.2861 104.507C85.2861 88.6892 124.78 75.778 144.37 65.7209C162.505 56.4108 177.149 75.2886 204.04 75.2886C230.931 75.2886 235.753 95.1966 253.888 104.507C273.477 114.564 281.108 111.693 281.108 127.511Z" fill="#F3F7F9"/>
<g opacity="0.1">
<path d="M178.951 237.654C211.599 237.654 238.065 232.714 238.065 226.62C238.065 220.526 211.599 215.586 178.951 215.586C146.303 215.586 119.837 220.526 119.837 226.62C119.837 232.714 146.303 237.654 178.951 237.654Z" fill="#F3F7F9"/>
</g>
<g opacity="0.1">
<path d="M177.823 237.902C210.471 237.902 236.937 232.962 236.937 226.868C236.937 220.774 210.471 215.834 177.823 215.834C145.176 215.834 118.709 220.774 118.709 226.868C118.709 232.962 145.176 237.902 177.823 237.902Z" fill="#F3F7F9"/>
</g>
<path d="M270.804 202.894C270.428 202.894 270.053 202.768 269.802 202.516L255.66 191.298L243.576 204.587C242.95 205.091 242.199 205.091 241.573 204.587L231.335 197.952L219.711 214.347C218.96 214.851 217.959 214.725 217.459 214.095C216.958 213.339 217.083 212.33 217.709 211.826L229.704 194.485C230.329 193.981 231.08 193.981 231.706 194.485L242.574 201.31L254.659 188.02C255.285 187.516 256.036 187.516 256.662 188.02L270.804 199.239L301.439 161.784C302.19 161.28 303.191 161.406 303.691 162.036C304.192 162.792 304.067 163.801 303.441 164.305L271.805 202.516C271.554 202.768 271.179 202.894 270.804 202.894Z" fill="#B31540"/>
<path d="M113.48 164.477C113.199 164.337 112.965 164.102 112.778 163.774L105.876 145.659C105.641 144.955 105.919 144.155 106.618 143.918C107.317 143.681 108.111 143.961 108.346 144.665L115.248 162.78C115.483 163.484 115.205 164.284 114.506 164.521C114.18 164.71 113.76 164.617 113.48 164.477Z" fill="#B31540"/>
<path d="M101.01 158.831C100.729 158.691 100.496 158.457 100.308 158.128C100.073 157.424 100.351 156.625 101.05 156.388L119.043 149.429C119.743 149.192 120.536 149.472 120.771 150.176C121.006 150.88 120.728 151.679 120.029 151.916L102.13 158.922C101.71 159.064 101.383 159.018 101.01 158.831Z" fill="#B31540"/>
<path d="M236.815 61.2316C236.7 61.2436 236.582 61.2172 236.459 61.1522L230.766 56.8872C230.555 56.7149 230.485 56.4111 230.656 56.1987C230.828 55.9863 231.129 55.9158 231.34 56.0881L237.033 60.3531C237.244 60.5255 237.314 60.8293 237.143 61.0417C237.078 61.1651 236.929 61.2196 236.815 61.2316Z" fill="#B31540"/>
<path d="M231.832 61.9493C231.717 61.9613 231.599 61.9349 231.476 61.8699C231.265 61.6976 231.195 61.3938 231.366 61.1814L235.6 55.4482C235.771 55.2358 236.073 55.1653 236.284 55.3377C236.495 55.51 236.565 55.8138 236.394 56.0262L232.198 61.7554C232.095 61.8828 231.985 61.9333 231.832 61.9493Z" fill="#B31540"/>
<path d="M281.62 99.849C281.62 98.6402 280.636 97.6484 279.435 97.6484C278.235 97.6484 277.251 98.6402 277.251 99.849C277.251 101.058 278.235 102.05 279.435 102.05C280.636 102.019 281.62 101.058 281.62 99.849Z" fill="#0F5257"/>
<path d="M162.164 214.382C162.164 213.824 162.164 213.142 162.164 212.367L178.227 208.586L177.95 212.615L177.612 217.822L152.994 230.096C152.624 229.135 152.255 228.267 152.255 228.236C150.532 224.579 161.456 221.727 162.133 216.675C162.164 216.458 162.164 216.241 162.164 216.025C162.195 215.715 162.164 215.157 162.164 214.382Z" fill="#0F5257"/>
<path d="M267.467 103.92C267.59 104.447 267.621 104.912 267.528 105.222C267.467 105.408 267.159 105.718 266.698 106.059C266.205 106.431 265.559 106.896 264.851 107.36C264.205 107.794 263.466 107.98 262.697 107.887L253.312 107.02C251.927 106.896 250.542 107.113 249.28 107.67L221.585 119.727C220.416 120.223 219.093 120.192 217.985 119.603L205.891 113.342L211.953 101.905L219.677 106.896C219.954 107.082 220.323 107.143 220.631 107.082L243.68 101.905C244.941 101.627 246.08 101.038 247.034 100.17C248.603 98.7751 251.373 96.6055 254.419 95.5207C254.727 95.3967 255.096 95.6447 255.066 95.9856C255.004 96.8225 254.266 98.3412 252.85 99.457C255.281 99.8289 261.897 100.325 266.236 101.751C266.544 101.844 266.821 102.091 266.944 102.401C267.159 102.897 267.375 103.424 267.467 103.92Z" fill="white"/>
<path d="M153.424 104.726L142.838 109.313L142.007 106.183L139.022 94.7148L138.961 94.5289L159.732 86.0365C162.194 85.0447 164.902 84.8277 167.456 85.4786C168.718 85.7885 169.949 86.0675 171.149 86.3464C170.503 89.1359 170.872 91.7704 174.103 93.0102C177.119 94.1569 183.643 92.3283 186.966 89.1979C188.197 89.4148 189.489 89.6318 190.874 89.8488C193.028 90.2207 195.09 91.0265 196.905 92.2043L211.984 101.936L205.922 113.373L204.845 115.45L188.751 107.36C186.227 117.557 187.397 124.841 192.844 133.953C189.459 133.55 186.351 133.148 183.396 132.652C170.564 130.575 161.025 127.631 148.654 122.765C149.824 116.969 151.393 111.08 153.424 104.726Z" fill="#F3F7F9"/>
<path d="M192.536 66.1364C193.49 69.0808 192.659 76.8293 186.136 80.7036L187.059 76.6124C187.059 76.6124 189.459 76.7983 189.736 74.4428C189.982 72.1182 187.274 73.358 187.213 73.389C187.305 73.327 190.444 70.8785 189.89 68.9878C189.428 67.5001 182.566 65.8884 178.843 63.9978C177.766 63.4709 176.935 62.882 176.627 62.2931C175.119 59.6586 177.735 56.9311 181.058 58.3568C184.382 59.8136 183.582 61.7042 185.859 62.944C188.105 64.2147 191.552 63.0989 192.536 66.1364Z" fill="#0F5257"/>
<path d="M201.839 75.5584C201.982 74.3477 201.666 73.2523 201.063 72.5028C202.155 70.8886 202.068 68.8996 200.862 68.0348C200.459 67.7754 200 67.6313 199.54 67.6313C200.287 66.1323 200.086 64.5181 199.022 63.7398C198.85 63.6244 198.678 63.5091 198.477 63.4515C199.051 62.3273 199.022 61.0878 198.304 60.2518C197.528 59.3006 196.091 59.1276 194.798 59.6753C195.316 58.4358 195.229 57.1098 194.454 56.1874C193.706 55.2938 192.5 54.9767 191.264 55.2073C191.379 54.6019 191.293 53.9678 191.005 53.3912C190.143 51.6905 187.758 51.1717 185.661 52.2382C185.23 52.44 184.856 52.6994 184.511 53.0165C183.276 51.6329 181.207 51.2005 179.425 52.0941C178.505 52.5265 177.845 53.2759 177.442 54.1119C176.551 54.0542 175.804 54.1392 174.593 54.9223C173.382 55.7054 172.472 59.4901 174.12 61.6637C175.245 63.1481 178.412 63.7098 178.412 63.7098C181.947 62.9027 183.908 62.212 186.666 64.4027C190.833 67.7177 191.321 72.2722 190.172 74.7513V74.8377C190.115 77.1438 185.747 78.6139 185.747 78.6139C185.344 81.5542 185 84.2638 184.741 87.1176C185.603 87.7517 186.724 88.04 187.873 87.7806C189.281 87.4635 190.316 86.4546 190.689 85.2151C191.35 85.6763 192.155 85.8492 192.931 85.6763C194.08 85.4168 194.913 84.4368 195.172 83.1972C195.373 83.2549 195.546 83.3125 195.747 83.3414C197.241 83.5143 198.678 82.073 198.908 80.084C198.936 79.6517 198.936 79.2193 198.879 78.8157C200.316 78.8734 201.609 77.4609 201.839 75.5584Z" fill="#0F5257"/>
<path d="M192.135 191.32L178.38 206.786L179.519 189.925L185.396 183.975L192.135 191.32Z" fill="#0F5257"/>
<path d="M176.565 68.4634C177.242 67.0687 177.98 65.6119 178.811 64.0312C182.565 65.9219 189.397 67.5646 189.858 69.0213C190.443 70.881 187.274 73.3295 187.181 73.4225C187.274 73.3915 189.982 72.1517 189.705 74.4763C189.458 76.8318 187.027 76.6459 187.027 76.6459L186.104 80.7371L184.473 87.8037C184.412 88.0517 184.473 88.2996 184.596 88.5166C184.75 88.7336 184.966 88.8575 185.212 88.9195C185.766 89.0125 186.35 89.1055 186.935 89.1985C183.612 92.3289 177.088 94.1575 174.072 93.0107C170.841 91.771 170.472 89.1365 171.118 86.347C171.703 86.471 172.287 86.595 172.903 86.7189C173.58 86.8429 174.226 86.502 174.534 85.8821L176.78 81.047C176.996 80.5511 176.842 79.9932 176.38 79.6833C176.042 79.4663 175.734 79.2494 175.426 79.0324C173.795 77.8856 173.18 75.716 174.011 73.8874C174.841 72.0277 175.672 70.2921 176.565 68.4634Z" fill="white"/>
<path d="M180.289 178.43L185.397 183.978L179.52 189.929L180.289 178.43Z" fill="#B31540"/>
<path d="M180.288 178.431L179.519 189.929L178.381 206.759L178.257 208.557L162.194 212.338C162.225 206.821 162.41 196.221 162.656 184.629L150.901 171.023C148.1 167.8 146.5 163.708 146.254 159.431C145.515 145.763 146.223 134.543 148.654 122.703C161.025 127.569 170.564 130.514 183.396 132.59L180.288 178.431Z" fill="#CC214F"/>
<path d="M88.0952 93.8145C88.0952 93.5665 88.126 93.3186 88.2798 93.0706C88.4029 92.8536 88.526 92.6367 88.6491 92.4197C88.7414 92.2338 88.8645 92.0788 88.9568 91.8928C89.3569 91.211 90.0031 90.6841 90.7724 90.4361L102.343 86.5618L101.45 84.1443C101.389 83.9893 101.358 83.8344 101.358 83.6794C101.358 83.3075 101.512 82.9045 101.82 82.6566C102.343 82.2227 103.112 82.2537 103.605 82.7186L108.405 87.5536C108.99 88.1425 109.728 88.5765 110.528 88.7624L135.854 95.1472C136.47 95.3022 137.116 95.2712 137.701 95.0232L138.931 94.5273L138.993 94.7133L141.978 106.181L138.039 107.514C136.654 107.979 135.146 107.917 133.823 107.328C127.484 104.569 108.559 96.325 104.282 95.0542C101.02 94.0624 94.1882 94.6203 89.6031 95.1472C88.803 95.2402 88.126 94.5583 88.0952 93.8145Z" fill="white"/>
<path d="M192.813 134.294H192.782C189.366 133.891 186.289 133.488 183.335 132.992C169.826 130.822 159.979 127.599 148.531 123.074C148.377 123.012 148.254 122.857 148.254 122.702C148.254 122.485 148.439 122.299 148.654 122.299C148.716 122.299 148.747 122.299 148.808 122.33C160.225 126.824 170.01 130.048 183.458 132.186C186.166 132.62 188.997 133.023 192.074 133.395C186.874 124.407 185.889 117.216 188.351 107.205C188.382 107.081 188.474 106.988 188.566 106.926C188.689 106.864 188.812 106.864 188.905 106.926L204.63 114.86L211.584 101.688C211.676 101.502 211.923 101.409 212.138 101.533C212.323 101.626 212.415 101.874 212.292 102.091L205.153 115.604C205.06 115.79 204.814 115.883 204.63 115.79L188.997 107.918C186.658 117.712 187.828 124.748 193.151 133.705C193.244 133.829 193.213 134.015 193.151 134.139C193.09 134.232 192.967 134.294 192.813 134.294Z" fill="#0F5257"/>
<path d="M219.955 120.499C219.216 120.499 218.508 120.313 217.831 119.972L205.738 113.711C205.553 113.618 205.461 113.371 205.553 113.154C205.645 112.968 205.892 112.875 206.107 112.968L218.201 119.228C219.216 119.755 220.416 119.786 221.462 119.352L249.158 107.296C250.481 106.707 251.927 106.49 253.374 106.614L262.759 107.482C263.436 107.544 264.082 107.389 264.636 107.017C265.406 106.521 266.021 106.087 266.452 105.746C267.067 105.281 267.129 105.095 267.16 105.064C267.19 104.971 267.252 104.692 267.098 104.01C267.006 103.576 266.821 103.049 266.575 102.492C266.483 102.275 266.329 102.12 266.113 102.058C262.882 101.004 258.266 100.446 255.22 100.105C254.235 99.9811 253.373 99.8881 252.789 99.7951C252.635 99.7641 252.512 99.6401 252.45 99.4852C252.42 99.3302 252.481 99.1752 252.604 99.0512C254.02 97.9665 254.604 96.5407 254.666 95.8898C254.666 95.8898 254.666 95.8589 254.635 95.8279C254.635 95.8279 254.604 95.7969 254.543 95.8279C251.496 96.9127 248.696 99.1442 247.281 100.384C246.296 101.283 245.065 101.903 243.742 102.213L220.693 107.389C220.262 107.482 219.801 107.389 219.431 107.172L196.66 92.4805C194.844 91.3027 192.875 90.5589 190.751 90.1869C189.367 89.939 188.074 89.722 186.874 89.5361L185.151 89.2571C184.782 89.1951 184.474 88.9782 184.289 88.6992C184.105 88.3893 184.012 88.0173 184.105 87.6764L186.659 76.5185C186.689 76.3326 186.874 76.1776 187.09 76.2086C187.305 76.2086 189.12 76.3016 189.336 74.4109C189.397 73.977 189.305 73.6981 189.151 73.5741C188.751 73.2951 187.797 73.6051 187.366 73.791C187.151 73.884 186.936 73.791 186.843 73.6051C186.751 73.3881 186.843 73.1712 187.028 73.0782C187.213 72.9852 188.72 72.3033 189.613 72.9542C190.044 73.2641 190.228 73.791 190.136 74.5349C189.921 76.4565 188.413 77.0144 187.397 77.0764L184.905 87.8934C184.874 88.0173 184.905 88.1723 184.966 88.2963C185.028 88.4203 185.151 88.4823 185.305 88.5132L187.028 88.7922C188.259 89.0091 189.551 89.2261 190.936 89.4431C193.152 89.815 195.244 90.6208 197.121 91.8606L219.893 106.552C220.078 106.676 220.324 106.738 220.539 106.676L243.588 101.5C244.788 101.221 245.865 100.663 246.788 99.8571C248.542 98.2764 251.281 96.1998 254.297 95.146C254.574 95.053 254.881 95.084 255.128 95.27C255.374 95.4559 255.497 95.7349 255.466 96.0138C255.404 96.8507 254.82 98.1214 253.774 99.1752C254.235 99.2372 254.758 99.2992 255.312 99.3612C258.389 99.7331 263.036 100.291 266.359 101.345C266.79 101.469 267.129 101.81 267.313 102.213C267.56 102.802 267.775 103.359 267.867 103.855C268.021 104.537 268.052 105.033 267.898 105.405C267.837 105.591 267.652 105.839 266.944 106.397C266.483 106.769 265.867 107.203 265.067 107.73C264.359 108.195 263.498 108.411 262.667 108.318L253.281 107.451C251.989 107.327 250.666 107.544 249.465 108.071L221.77 120.127C221.185 120.344 220.57 120.499 219.955 120.499Z" fill="#0F5257"/>
<path d="M142.839 109.713C142.777 109.713 142.716 109.713 142.654 109.682C142.562 109.62 142.469 109.527 142.439 109.434L138.623 94.8361C138.561 94.6191 138.684 94.4022 138.9 94.3402C139.115 94.2782 139.331 94.4022 139.392 94.6191L143.085 108.783L153.24 104.382C153.455 104.289 153.671 104.382 153.763 104.599C153.855 104.816 153.763 105.033 153.548 105.126L142.962 109.713C142.931 109.713 142.9 109.713 142.839 109.713Z" fill="#0F5257"/>
<path d="M162.625 185.059C162.502 185.059 162.41 184.997 162.318 184.935L150.562 171.328C147.731 168.043 146.039 163.859 145.823 159.519C145.085 145.758 145.823 134.414 148.224 122.667C149.362 117.089 150.932 111.2 153.024 104.629C153.978 101.622 155.024 98.4611 156.255 95.0207C156.317 94.8038 156.563 94.7108 156.778 94.7728C156.994 94.8347 157.086 95.0827 157.025 95.2997C155.825 98.74 154.747 101.87 153.794 104.877C151.732 111.417 150.162 117.305 149.024 122.853C146.624 134.507 145.885 145.82 146.624 159.488C146.839 163.673 148.47 167.671 151.178 170.832L162.933 184.439C163.087 184.594 163.056 184.873 162.902 184.997C162.841 185.028 162.718 185.059 162.625 185.059Z" fill="#0F5257"/>
<path d="M154.04 233.132C153.978 233.132 153.947 233.132 153.886 233.101C153.794 233.07 153.701 232.977 153.67 232.884L152.47 229.847C152.193 229.165 151.947 228.483 151.916 228.421C150.901 226.252 153.486 224.485 156.194 222.594C158.656 220.89 161.456 218.968 161.764 216.644C161.794 216.458 161.794 216.272 161.794 216.055C161.794 215.745 161.764 215.187 161.764 214.381C161.764 213.823 161.764 213.141 161.764 212.366C161.794 207.469 161.948 198.14 162.225 184.658C162.564 167.58 162.994 148.519 163.148 141.142L163.271 136.028C163.271 135.811 163.456 135.625 163.671 135.625C163.887 135.625 164.072 135.811 164.072 136.028L163.948 141.142C163.795 148.519 163.364 167.549 163.025 184.658C162.748 198.14 162.594 207.469 162.564 212.366C162.564 213.141 162.564 213.823 162.564 214.381C162.564 215.156 162.564 215.714 162.594 216.024C162.594 216.272 162.594 216.52 162.564 216.737C162.194 219.402 159.24 221.448 156.655 223.245C154.101 225.012 151.916 226.531 152.655 228.08C152.655 228.111 152.716 228.235 153.24 229.537L154.286 232.172L177.027 221.169L178.011 206.756C178.011 206.54 178.227 206.354 178.442 206.385C178.658 206.385 178.842 206.602 178.812 206.818L177.827 221.479C177.827 221.634 177.735 221.758 177.611 221.82L154.286 233.101C154.163 233.101 154.101 233.132 154.04 233.132Z" fill="#0F5257"/>
<path d="M178.381 207.193C178.35 207.193 178.35 207.193 178.381 207.193C178.135 207.162 177.95 206.976 177.981 206.759L182.997 132.59C182.997 132.373 183.212 132.187 183.428 132.218C183.643 132.218 183.828 132.435 183.797 132.652L178.781 206.821C178.75 207.007 178.566 207.193 178.381 207.193Z" fill="#0F5257"/>
<path d="M153.024 230.497C152.87 230.497 152.747 230.404 152.655 230.28C152.563 230.094 152.624 229.846 152.839 229.753L177.457 217.479C177.642 217.386 177.888 217.448 177.981 217.665C178.073 217.851 178.011 218.099 177.796 218.192L153.178 230.466C153.147 230.497 153.086 230.497 153.024 230.497Z" fill="#0F5257"/>
<path d="M162.195 212.769C162.01 212.769 161.856 212.645 161.795 212.459C161.733 212.242 161.887 212.025 162.102 211.963L178.166 208.182C178.381 208.12 178.596 208.275 178.658 208.492C178.72 208.709 178.566 208.926 178.35 208.988L162.287 212.769C162.256 212.769 162.225 212.769 162.195 212.769Z" fill="#0F5257"/>
<path d="M177.981 213.02C177.889 213.02 177.796 212.989 177.735 212.927C177.581 212.772 177.55 212.524 177.704 212.369L193.736 193.586L180.043 178.709C179.889 178.554 179.889 178.306 180.073 178.151C180.227 177.996 180.473 177.996 180.627 178.151L194.567 193.307C194.721 193.462 194.721 193.679 194.567 193.834L178.319 212.865C178.196 212.989 178.073 213.02 177.981 213.02Z" fill="#0F5257"/>
<path d="M179.519 190.328C179.426 190.328 179.303 190.297 179.242 190.204C179.088 190.049 179.088 189.801 179.242 189.646L185.119 183.695L185.704 184.253L179.826 190.204C179.703 190.297 179.611 190.328 179.519 190.328Z" fill="#0F5257"/>
<path d="M178.658 207.036L178.35 206.757L178.073 206.478L191.829 191.043C191.983 190.888 192.229 190.857 192.383 191.012C192.536 191.167 192.567 191.415 192.413 191.57L178.658 207.036Z" fill="#0F5257"/>
<path d="M163.579 141.546C163.518 141.546 163.456 141.515 163.364 141.484C160.748 139.965 158.656 137.238 158.225 134.82C158.194 134.603 158.348 134.387 158.563 134.356C158.779 134.325 158.994 134.479 159.025 134.696C159.333 136.494 160.964 139.16 163.764 140.802C163.949 140.926 164.01 141.174 163.918 141.36C163.856 141.484 163.702 141.546 163.579 141.546Z" fill="#0F5257"/>
<path d="M136.192 108.227C135.33 108.227 134.499 108.041 133.699 107.7C127.852 105.159 108.496 96.7283 104.188 95.4265C101.757 94.6827 96.5874 94.7137 89.6635 95.5195C89.1712 95.5815 88.6788 95.4265 88.3096 95.1166C87.9403 94.8067 87.6941 94.3108 87.6633 93.8149C87.6633 93.4739 87.7249 93.164 87.8787 92.854C88.0018 92.6371 88.1249 92.3891 88.248 92.1722C88.3403 91.9862 88.4634 91.8002 88.5557 91.6453C89.0173 90.8704 89.7251 90.2815 90.5867 90.0026L101.788 86.2523L101.049 84.2377C100.988 84.0517 100.957 83.8347 100.957 83.6488C100.957 83.1219 101.172 82.657 101.573 82.316C102.25 81.7271 103.265 81.7891 103.911 82.409L108.712 87.2751C109.235 87.802 109.912 88.2049 110.65 88.3909L135.976 94.7757C136.499 94.8996 137.084 94.8687 137.576 94.6517L159.548 85.6324C162.102 84.5786 164.841 84.3926 167.518 85.0435C168.749 85.3535 169.949 85.6324 171.211 85.9114C171.795 86.0353 172.38 86.1593 172.965 86.2833C173.457 86.3763 173.919 86.1283 174.134 85.6944L176.381 80.8593C176.534 80.5494 176.411 80.2084 176.134 80.0225C175.796 79.8055 175.457 79.5885 175.15 79.3716C173.334 78.1008 172.688 75.7453 173.611 73.6997C174.442 71.84 175.273 70.1353 176.165 68.2757C176.842 66.881 177.581 65.4242 178.411 63.8435C178.504 63.6576 178.75 63.5646 178.965 63.6576C179.15 63.7506 179.242 63.9985 179.15 64.2155C178.319 65.7962 177.611 67.2529 176.904 68.6476C176.011 70.4763 175.18 72.2119 174.35 74.0406C173.611 75.7143 174.134 77.6669 175.611 78.6897C175.919 78.9067 176.227 79.0926 176.565 79.3096C177.181 79.7125 177.427 80.5184 177.119 81.1693L174.873 86.0043C174.503 86.8102 173.673 87.2131 172.811 87.0581C172.226 86.9342 171.642 86.8102 171.026 86.6862C169.764 86.4073 168.564 86.1283 167.333 85.8184C164.81 85.1985 162.225 85.3845 159.856 86.3763L137.884 95.3956C137.207 95.6745 136.469 95.7365 135.792 95.5505L110.466 89.1657C109.604 88.9488 108.804 88.4839 108.158 87.833L103.357 82.9979C103.019 82.657 102.496 82.626 102.126 82.9359C101.911 83.1219 101.788 83.3698 101.788 83.6488C101.788 83.7728 101.819 83.8657 101.849 83.9587L102.742 86.3763C102.773 86.4692 102.773 86.5932 102.742 86.6862C102.711 86.7792 102.619 86.8722 102.496 86.9032L90.9252 90.7774C90.2482 90.9944 89.6943 91.4593 89.325 92.0792C89.2327 92.2651 89.1096 92.4201 89.0173 92.6061C88.8942 92.823 88.7711 93.04 88.6481 93.257C88.5557 93.4119 88.525 93.5979 88.525 93.7839C88.525 94.0628 88.6788 94.3108 88.8942 94.4967C89.1096 94.6827 89.3558 94.7447 89.6328 94.7137C94.5871 94.1248 101.203 93.6599 104.465 94.6517C108.804 95.9534 128.222 104.384 134.068 106.956C135.33 107.514 136.715 107.545 138.007 107.111L141.946 105.779C142.161 105.717 142.377 105.81 142.469 106.027C142.531 106.243 142.438 106.46 142.223 106.553L138.284 107.886C137.576 108.103 136.899 108.227 136.192 108.227Z" fill="#0F5257"/>
<path d="M183.089 71.4992C182.935 71.4992 182.781 71.4062 182.72 71.2512C182.597 70.9723 182.32 70.7243 182.012 70.6003C181.735 70.5074 181.458 70.5074 181.243 70.6313C181.058 70.7243 180.812 70.6623 180.689 70.4764C180.596 70.2904 180.658 70.0424 180.843 69.9185C181.243 69.7015 181.766 69.6705 182.258 69.8565C182.781 70.0424 183.212 70.4454 183.458 70.9413C183.551 71.1582 183.458 71.3752 183.243 71.4682C183.212 71.4992 183.15 71.4992 183.089 71.4992Z" fill="#0F5257"/>
<path d="M177.058 69.4521C176.904 69.4521 176.75 69.3591 176.689 69.2041C176.627 69.0491 176.504 68.8942 176.319 68.7702C176.134 68.6462 176.104 68.3673 176.227 68.2123C176.35 68.0263 176.627 67.9953 176.781 68.1193C177.058 68.3363 177.243 68.5842 177.397 68.8632C177.489 69.0801 177.397 69.2971 177.181 69.3901C177.151 69.4521 177.12 69.4521 177.058 69.4521Z" fill="#0F5257"/>
<path d="M177.15 73.4805C177.089 73.4805 177.027 73.4805 176.966 73.4495L176.258 73.1086C175.889 72.9226 175.673 72.5507 175.673 72.1788C175.673 72.0238 175.704 71.8378 175.796 71.6829C175.95 71.3729 176.289 71.156 176.658 71.125C177.458 71.063 178.135 70.2261 179.181 68.8624C179.304 68.6764 179.581 68.6454 179.735 68.8004C179.92 68.9244 179.95 69.2033 179.797 69.3583C178.627 70.908 177.827 71.8378 176.719 71.9308C176.627 71.9308 176.535 71.9928 176.504 72.0548C176.473 72.0858 176.473 72.1168 176.473 72.1788C176.473 72.2717 176.535 72.3647 176.596 72.3957L177.304 72.7367C177.489 72.8296 177.581 73.0776 177.489 73.2636C177.427 73.3875 177.273 73.4805 177.15 73.4805Z" fill="#0F5257"/>
<path d="M176.32 93.7215C175.427 93.7215 174.627 93.5975 173.95 93.3495C170.996 92.2338 169.919 89.8162 170.75 86.2209C170.811 86.0039 171.027 85.88 171.242 85.911C171.457 85.973 171.581 86.1899 171.55 86.4069C170.811 89.6612 171.673 91.6139 174.258 92.6057C177.181 93.7215 183.582 91.7998 186.721 88.8864C186.875 88.7314 187.151 88.7314 187.275 88.9174C187.428 89.0724 187.428 89.3513 187.244 89.4753C184.567 91.9548 179.797 93.7215 176.32 93.7215Z" fill="#0F5257"/>
<path d="M88.6488 92.8222C88.4642 92.8222 88.3103 92.6983 88.2488 92.5433C88.1872 92.3263 88.3103 92.1094 88.5257 92.0474C92.4954 90.9006 99.4192 88.979 101.142 88.793C101.358 88.762 101.573 88.917 101.573 89.1649C101.604 89.3819 101.45 89.5988 101.204 89.5988C100.004 89.7228 95.4495 90.9316 88.7411 92.8532C88.7103 92.8222 88.6796 92.8222 88.6488 92.8222Z" fill="#0F5257"/>
<path d="M88.0948 94.2167C87.9102 94.2167 87.7255 94.0927 87.6947 93.8757C87.664 93.6588 87.7871 93.4418 88.0025 93.4108C92.6183 92.512 98.4344 91.3962 99.973 91.3652C100.219 91.3652 100.373 91.5202 100.373 91.7682C100.373 91.9851 100.219 92.1711 99.973 92.1711C98.8036 92.2021 94.6186 92.9149 88.1256 94.2167C88.1563 94.2167 88.1256 94.2167 88.0948 94.2167Z" fill="#0F5257"/>
<path d="M267.467 104.319C267.436 104.319 267.406 104.319 267.375 104.319C262.697 103.358 255.497 102.366 255.404 102.366C255.189 102.335 255.035 102.118 255.066 101.902C255.097 101.685 255.312 101.53 255.527 101.561C255.589 101.561 262.82 102.552 267.529 103.513C267.744 103.544 267.898 103.761 267.836 103.978C267.836 104.195 267.683 104.319 267.467 104.319Z" fill="#0F5257"/>
<path d="M266.698 106.461C266.667 106.461 266.636 106.461 266.636 106.461C262.113 105.593 255.158 104.88 255.066 104.88C254.851 104.849 254.697 104.663 254.697 104.446C254.727 104.229 254.912 104.074 255.127 104.074C255.189 104.074 262.174 104.787 266.759 105.655C266.975 105.686 267.129 105.903 267.067 106.12C267.067 106.337 266.883 106.461 266.698 106.461Z" fill="#0F5257"/>
<path d="M162.164 217.077C162.01 217.077 161.856 216.984 161.795 216.798C161.733 216.581 161.825 216.364 162.041 216.271L164.503 215.404C164.718 215.342 164.934 215.435 165.026 215.652C165.087 215.869 164.995 216.085 164.78 216.178L162.318 217.046C162.256 217.077 162.226 217.077 162.164 217.077Z" fill="#0F5257"/>
<path d="M162.164 214.784C161.979 214.784 161.825 214.66 161.764 214.474C161.702 214.257 161.825 214.04 162.041 213.978L164.226 213.42C164.441 213.358 164.656 213.482 164.718 213.699C164.779 213.916 164.656 214.133 164.441 214.195L162.256 214.753C162.256 214.784 162.195 214.784 162.164 214.784Z" fill="#0F5257"/>
<path d="M169.724 40.4895H162.985C162.584 40.4895 162.215 40.2416 162.031 39.8697C161.846 39.4977 161.907 39.0638 162.154 38.7229L164.708 35.5615V28.5878C164.708 28.4638 164.8 28.3398 164.954 28.3398C165.108 28.3398 165.2 28.4328 165.2 28.5878V35.7474L162.523 39.0328C162.369 39.2188 162.338 39.4667 162.431 39.6837C162.523 39.9007 162.738 40.0246 162.985 40.0246H169.724C169.847 40.0246 169.97 40.1176 169.97 40.2726C169.97 40.4276 169.847 40.4895 169.724 40.4895Z" fill="#FAFCFD"/>
<path d="M168.278 35.4975C168.155 35.4975 168.032 35.4045 168.032 35.2496V28.5858C168.032 28.4619 168.124 28.3379 168.278 28.3379C168.432 28.3379 168.524 28.4309 168.524 28.5858V35.2496C168.524 35.3736 168.401 35.4975 168.278 35.4975Z" fill="#FAFCFD"/>
<path d="M169.324 28.8045H163.939C163.816 28.8045 163.693 28.7115 163.693 28.5565C163.693 28.4016 163.785 28.3086 163.939 28.3086H169.324C169.447 28.3086 169.57 28.4016 169.57 28.5565C169.57 28.7115 169.447 28.8045 169.324 28.8045Z" fill="#FAFCFD"/>
<path d="M168.277 32.99H164.954C164.831 32.99 164.708 32.8971 164.708 32.7421C164.708 32.5871 164.8 32.4941 164.954 32.4941H168.277C168.4 32.4941 168.523 32.5871 168.523 32.7421C168.523 32.8971 168.4 32.99 168.277 32.99Z" fill="#FAFCFD"/>
<path d="M169.724 40.4865C168.124 40.4865 166.8 39.1538 166.8 37.5421C166.8 35.9304 168.124 34.5977 169.724 34.5977C171.324 34.5977 172.647 35.9304 172.647 37.5421C172.647 39.1538 171.355 40.4865 169.724 40.4865ZM169.724 35.0626C168.37 35.0626 167.262 36.1784 167.262 37.5421C167.262 38.9058 168.37 40.0216 169.724 40.0216C171.078 40.0216 172.185 38.9058 172.185 37.5421C172.185 36.1784 171.078 35.0626 169.724 35.0626Z" fill="#FAFCFD"/>
<path d="M168.278 37.7925C168.154 37.7925 168.031 37.6995 168.031 37.5445C168.031 36.6147 168.77 35.8398 169.724 35.8398C169.847 35.8398 169.97 35.9328 169.97 36.0878C169.97 36.2428 169.878 36.3357 169.724 36.3357C169.047 36.3357 168.493 36.8936 168.493 37.5755C168.524 37.6685 168.401 37.7925 168.278 37.7925Z" fill="#FAFCFD"/>
<path d="M172.432 40.4905C172.371 40.4905 172.309 40.4595 172.278 40.4285L171.601 39.7466C171.509 39.6536 171.509 39.4987 171.601 39.4057C171.693 39.3127 171.847 39.3127 171.94 39.4057L172.617 40.0875C172.709 40.1805 172.709 40.3355 172.617 40.4285C172.555 40.4595 172.494 40.4905 172.432 40.4905Z" fill="#FAFCFD"/>
<path d="M78.5933 75.2598C78.5933 72.5324 76.3777 70.3008 73.6697 70.3008C70.9617 70.3008 68.7461 72.5324 68.7461 75.2598C68.7461 77.9873 70.9617 80.2189 73.6697 80.2189C76.3777 80.2499 78.5933 78.0183 78.5933 75.2598Z" fill="#0F5257"/>
<path d="M130.093 202.786C130.093 200.585 128.339 198.818 126.154 198.818C123.969 198.818 122.215 200.585 122.215 202.786C122.215 204.986 123.969 206.753 126.154 206.753C128.339 206.753 130.093 204.986 130.093 202.786Z" fill="#0F5257"/>
<path d="M198.599 14.2798C198.599 22.1663 192.248 28.5595 184.413 28.5595C176.579 28.5595 170.227 22.1663 170.227 14.2798C170.227 6.39327 176.579 0 184.413 0C192.248 0 198.599 6.39327 198.599 14.2798ZM177.973 14.2798C177.973 17.86 180.856 20.7624 184.413 20.7624C187.97 20.7624 190.853 17.86 190.853 14.2798C190.853 10.6995 187.97 7.79716 184.413 7.79716C180.856 7.79716 177.973 10.6995 177.973 14.2798Z" fill="#0F5257"/>
<path d="M28.3712 141.7C28.3712 149.586 22.0201 155.979 14.1856 155.979C6.35111 155.979 0 149.586 0 141.7C0 133.813 6.35111 127.42 14.1856 127.42C22.0201 127.42 28.3712 133.813 28.3712 141.7ZM7.74575 141.7C7.74575 145.28 10.629 148.182 14.1856 148.182C17.7422 148.182 20.6255 145.28 20.6255 141.7C20.6255 138.119 17.7422 135.217 14.1856 135.217C10.629 135.217 7.74575 138.119 7.74575 141.7Z" fill="#0F5257"/>
<rect width="10.9416" height="122.972" rx="5.47081" transform="matrix(0.767324 0.64126 -0.636256 0.771478 95.7019 108.887)" fill="#D4DFE3"/>
<rect width="10.9169" height="56.719" rx="5.45844" transform="matrix(0.965495 -0.260421 0.257226 0.966351 235.754 225.926)" fill="#D4DFE3"/>
<rect width="10.9169" height="53.3921" rx="5.45844" transform="matrix(0.965495 -0.260421 0.257226 0.966351 209.027 128.682)" fill="#D4DFE3"/>
<rect width="10.9782" height="249.482" rx="5.4891" transform="matrix(-0.292151 0.956372 -0.95528 -0.295704 261.458 271.5)" fill="#D4DFE3"/>
<rect width="10.9416" height="53.6792" rx="5.47081" transform="matrix(0.767324 0.64126 -0.636256 0.771478 161.045 29.6562)" fill="#D4DFE3"/>
</svg>
